<?xml version="1.0" encoding="UTF-8"?>
<svg id="grassjelly" data-name="grassjelly" xmlns="http://www.w3.org/2000/svg" version="1.1" viewBox="0 0 600 600">
  <defs>
    <style>
      .cls-1, .cls-2, .cls-3, .cls-4, .cls-5, .cls-6, .cls-7 {
        stroke-width: 0px;
      }

      .cls-1, .cls-2, .cls-4, .cls-7 {
        fill-rule: evenodd;
      }

      .cls-1, .cls-5 {
        fill: #fff;
      }

      .cls-2 {
        fill: #060707;
      }

      .cls-3 {
        fill: #f16579;
      }

      .cls-4 {
        fill: #010101;
      }

      .cls-6 {
        fill: #121210;
      }

      .cls-7 {
        fill: #d4984e;
      }

#grassjelly:hover #body {
      fill: #264900;
      }

      #grassjelly:hover #highlight {
        fill: green;
      }

      #grassjelly:hover #shoes {
      fill: brown;
      }

      #grassjelly:hover #leg {
        fill: #264900;
      }
      
      #grassjelly:hover #mouth {
        fill: black;
      }
      
      #grassjelly:hover {
      filter: drop-shadow(20px 6px 10px rgb(98, 97, 97));
      animation: bounce 2s infinite;
      }
      
      @keyframes bounce {
      20%, 50%, 80%, to{
        transform: translateY(0);
      }

      40%{
        transform: translateY(-30px);
      }
      70%{
        transform: translateY(-15px);
      }
      90%{
        transform: translateY(-4px);
      }
}
    </style>

    <script>
const grassjelly = document.querySelector("#grassjelly");

function logIdgrassjelly() {
    console.log("User clicked on" + this.id);
}

grassjelly.addEventListener("click", logIdgrassjelly);
</script>

  </defs>
  <path id="shoes" class="cls-7" d="M314.9,486.2s-4.7-4.6-.9-10.2c3.3-4.9,9.6-5.7,17.5-6.4,7.5-.7,16-.4,20.4,3.3,4.4,3.8,3.5,9,.5,11.3,0,0,5.6,6.7,10,8.7,0,0,14.6-7.8,31.6-2.9,17.1,4.9,27.6,18.5,29.2,29.2,1.6,10.6-2.7,13.4-4.7,14.5s-23.6,5.4-54.9,5.5c-31.3,0-53.1-3.4-54.4-4.9-1.3-1.5-3.9-27.4,5.8-48.3h0ZM239.5,469.4c-8.2-2.1-17.8-2.2-21.4,2-3.5,4.2-1.9,8.1-.5,9.8,0,0-5,5.2-12.1,6.7,0,0-9.1-8.5-27.9-8.8-18.8-.2-31.7,11.2-35.8,21.4-4,10.2-2.7,14.3-.9,15.9,1.6,1.3,15.9,11.2,47.3,16.8s60.6,5.7,62.1,4.4c1.5-1.2,3.4-11.2,4.7-20.3,1.3-9.2.9-22.2-.9-27.4,0,0,4.6-2.5,4.5-7.7,0-6-7-9.8-19.3-12.9h0Z"/>
  <path id="leg" class="cls-4" d="M323.3,469.7c-.9.2-1.8.4-2.6.6-3.2.9-5.8,2.5-7.6,5.2-3.4,5-.5,9.4.6,10.8-7.1,15.8-7.4,34.3-6.7,43.1h0c0,.5,0,1,.2,1.6.2,1.5.4,2.6.6,3.2.2.4.3.7.5.9.2.2.4.4.8.5.5.2,1.6.5,2.9.9,7.3,1.6,26.4,3.9,51.6,3.8,22,0,39.2-2.2,48.2-3.9,4-.8,6.5-1.4,7.1-1.8,2.1-1.2,6.9-4.1,5.2-15.4-1.6-10.9-12.3-24.9-29.9-29.9-15.6-4.5-29.2,1.3-32,2.6-3.3-1.8-7.2-6-8.6-7.6,2.7-2.9,3.4-8.2-1.2-12.1-1.9-1.6-4.5-2.6-7.4-3.3-.7-.2-1.5-.2-2.2-.4l.3,4.9c-4.4-61-2.2-123.4-2.2-123.4,0-4.8-4.2-8.8-9.7-8.8-5.4,0-9.9,3.7-10,8.5,0,0-2.1,59.8,1.9,119.8v.2ZM229.7,467.1c-1.8,0-3.5,0-5.1.3-3.2.5-5.8,1.6-7.4,3.5-3.5,4.2-2.4,8.1-.9,10.2-1.4,1.2-5.3,4.5-10.5,5.8-2.1-1.7-11.3-8.4-28.2-8.6-19.3-.2-32.6,11.6-36.8,22-1.4,3.5-2.2,6.4-2.5,8.6v.2c-.2,1.7-.2,3.1,0,4.2.3,1.9,1.1,3.2,1.9,3.9,1.6,1.3,16.1,11.4,47.9,17,25.3,4.4,49.1,5.4,58.3,5,1.7,0,2.9-.2,3.6-.4.5-.2.9-.3,1-.5.5-.5,1.2-1.7,1.7-3.6,0-.3.2-.7.3-1.1h0c1.1-4,2.2-10.2,3-16.1,1.2-9,.9-21.5-.8-27.1,1.4-.9,4.4-3.6,4.3-8,0-3.3-1.9-6-5.5-8.2-1.4-.9-3-1.7-4.9-2.4,16.5-59.9,16-121.5,16-121.5,0-4.8-4.3-8.7-9.8-8.8-5.4,0-9.9,3.8-9.9,8.6,0,0,.5,59.4-16.1,117.1h0ZM343.1,470.8c0,.6,0,1.2.2,1.8v1.9c0,.5,0,.9-.2,1.3-.2.5-.4.9-.7,1.3-.2.2-.2.3-.4.5s-.2.2-.3.2c-.7.5-1.5.9-2.3,1.2-.2,0-.3,0-.4.2-.2,0-.4,0-.5.2-.2,0-.5,0-.7.2-.3,0-.7.2-1,.2-.9.2-1.7.2-2.6.2h-4.7c-.2,0-.4,0-.5,0h-.4c-.9-.2-1.7-.5-2.5-.9-.2,0-.2-.2-.3-.2-.2-.2-.3-.2-.5-.4-.4-.4-.7-.8-.9-1.2-.2-.4-.3-.9-.4-1.3v-1.8c0-.6,0-1.2-.2-1.8v-.2c-.7.2-1.4.3-2.1.5-2.7.9-5,2.1-6.5,4.3-3.2,4.7.3,8.5.8,9,.4.2,2.9,1.9,8,2.5.5,0,1,.5.9,1,0,.5-.6.9-1.2.8-4-.5-6.6-1.5-8-2.2-6.6,15-7.1,32.3-6.3,41.1,3.6.9,20.8,4.5,48.9,4.9.5,0,1,.4,1,.9s-.5.9-1.1.9c-26.8-.4-43.8-3.7-48.7-4.8v.2c.2,1.5.5,2.8.6,3.1.2,0,.5.2.9.3,1.1.3,2.7.7,5,1.1,8.8,1.6,26,3.2,47.9,3.2s38.9-2.2,47.9-3.8c3.6-.7,5.9-1.2,6.5-1.6,1-.5,2.5-1.5,3.5-3.7-7.1,2.6-23.3,5.5-50.5,6-.5,0-1-.4-1.1-.9s.5-.9,1-.9c28.9-.5,45.2-3.9,51.2-6.4h0c.4-1.9.5-4.3,0-7.6-1.6-10.4-11.8-23.7-28.5-28.5-16.6-4.8-30.8,2.8-30.8,2.8h0s-6.3,3.3-12.3,10.5c-.3.4-1,.5-1.5.2s-.5-.9-.2-1.2c4.5-5.4,9.2-8.8,11.5-10.2-3.3-2-6.8-5.9-8.3-7.5-1.5.9-4.6,2.5-8.5,3.2-.5,0-1.1-.2-1.2-.7,0-.5.2-1,.9-1.1,4.7-.8,8.1-3.1,8.5-3.3,2.6-2.1,3.3-6.7-.6-10-1.6-1.4-3.9-2.2-6.4-2.8-.5,0-1.1-.2-1.6-.3v.2-.2ZM229.1,469c-1.5,0-2.9,0-4.2.2-2.6.4-4.7,1.2-6,2.8-3.1,3.7-1.9,7.1-.5,8.7h0s1.7,2,5.5,3.6c.5.2.7.8.5,1.2-.2.5-.9.6-1.4.4-2.8-1.2-4.6-2.6-5.5-3.4-1.6,1.4-5.2,4.3-10,5.8,2,1.9,6.1,5.9,9.8,12.1.2.5,0,1-.5,1.2-.5.2-1.2,0-1.4-.4-4.8-8.2-10.5-12.6-10.5-12.6h0c-.2-.2-9.1-8.2-27.1-8.5-18.3-.2-30.8,10.9-34.7,20.8-1.2,3.2-2,5.8-2.3,7.9,1.8,1.5,10.6,8.3,29.9,14,.5.2.9.7.6,1.2-.2.5-.8.7-1.3.5-16.9-5-26.1-10.9-29.5-13.5v.7c0,2.2.6,3.4,1.4,4,1.6,1.3,15.7,11.1,46.8,16.5,25.1,4.3,48.6,5.4,57.9,5,1.6,0,3.1-.3,3.4-.4,0,0,.2-.2.2-.5.2-.5.5-1.2.8-2.2-6.4.2-33.7.6-66.3-6-.5,0-.9-.6-.8-1.1s.7-.8,1.2-.7c33.5,6.9,61.4,6.2,66.3,6,1-4,2-9.8,2.8-15.3,1.2-8.5.9-20.4-.6-26.1-1.5.4-4.3.9-8.7.5-.5,0-1-.5-.9-1,0-.5.5-.9,1.2-.8,6,.6,8.5-.7,8.6-.7s4.1-2.2,4-6.8c0-2.7-1.6-4.9-4.7-6.7-1.2-.8-2.6-1.5-4.2-2.1h0c-.2,1-.5,1.9-.9,2.9l-.2.9c0,0,0,.2,0,.3,0,0,0,.2-.2.3-.2.3-.3.5-.5.8-.2.2-.5.5-.7.7,0,0-.2.2-.2.2-.6.4-1.3.5-2,.7h-3.3c-.9,0-1.9-.2-2.9-.4-.2,0-.5,0-.7-.2-.2,0-.4,0-.5,0-.2,0-.5,0-.7-.2-1.1-.2-2.2-.6-3.2-1-.9-.3-1.6-.8-2.4-1.2-.3-.2-.6-.5-.9-.7-.2-.2-.5-.5-.7-.7-.3-.4-.6-.8-.9-1.2,0-.2-.2-.5-.2-.7v-1.4c0-.2.2-.5.2-.7.3-1,.6-1.9.9-2.9h.2Z"/>
  <path id="body" class="cls-2" d="M522,317.6c-4,20.6-22.6,36.7-46,39.8-120.8,16.1-238.5,14.3-354.2-.4-23.7-2.9-42.4-19.1-46.5-39.9-12.2-63.7-12.5-128.4-.3-194.1,4-21.7,24.3-38.3,49.2-40.3,116.8-9.4,233.1-9.5,349.1,0,24.9,2.1,45.1,18.6,49.1,40.3,12.3,65.8,11.8,130.8-.5,194.7h0Z"/>
  <path id="highlight" class="cls-1" d="M133.1,99.3c.6-.4,1.3-.6,2.2-.6,3.5,0,4,2.4,4,2.9.2.8.2,2.2-1.8,3.3-.2.2-.8.4-1.6.5-1.2.3-3.9.9-5,1.1-3.6.9-7.3,1.7-10.9,2.7-11,3.1-17.8,10.1-20.7,19.9,0,.4-1.6,5.9-1.8,6.9,0,.5,0,1.2-.3,1.7-.9,1.6-3,2.4-4.9,1.7-.7-.2-2.3-1.1-2.3-3.3s1.9-8.2,2-8.7c3.5-12.1,12-20.6,25.6-24.5,3.7-1.1,7.4-1.9,11.2-2.8.8-.2,2.9-.6,4-.9h.2ZM508.3,307.6c-1.2-1.5-3.5-1.9-5.1-.9-.6.4-1.5,1.2-2,2.6-.7,1.8-1.1,5.6-1.4,6.7-5.4,16.9-21.1,21.6-38.4,25.4-2,.5-3.2,2.2-2.7,4,.5,1.8,2.5,2.8,4.5,2.4,20-4.4,37.5-10.4,43.7-29.9.2-.8.5-2.9.9-4.7,0-.5.3-1.3.4-1.6.9-1.1,1-2.6.2-3.8h0Z"/>
  <path id="mouth" class="cls-3" d="M329.6,308.4c3.6-2.2,29.2,14.3,5.3,28-37.4,24.6-51.4-27-51.4-27,6.3,7.6,40.4,2.7,46.1-.9h0ZM336.7,338.7c12.6-7.2,12.1-15.3,10.7-19.5-2.6-7.9-12.2-13.9-17-13.9s-2,.2-2.8.8c-2.5,1.6-15.5,4.4-27.8,4.4s-12.7-1.5-13.9-2.8l-5.8,2.3c.4,1.5,10.1,35.8,35.6,35.8s13.7-2.4,20.9-7.1h0ZM299.9,316.2c11.2,0,25.7-2.4,30.9-5.1,2.3.5,8.9,4.7,10.5,10.1,1.4,4.6-1.4,8.9-8.2,12.8h-.2c-6.1,4.1-11.9,6.2-17.1,6.2-14.5,0-23.1-15.7-26.9-25,3,.7,6.7,1,11,1h0ZM345.9,303.5l13.9-10.9-4.3-4.3-13.7,10.8c-40.9,28.3-99.4-10.5-100-10.9l-4,4.6c.6.5,15.8,10.6,36.6,17.1,11.2,3.6,22,5.3,32,5.3,14.9,0,28.2-3.9,39.4-11.6h0Z"/>
  <g id="eyes">
    <g id="left">
      <path id="left_black" data-name="left black" class="cls-5" d="M155.5,183.2c0,32,29.4,57.9,65.8,57.9s65.8-25.9,65.8-57.9-29.4-57.9-65.8-57.9-65.8,25.9-65.8,57.9"/>
    </g>
    <g id="right">
      <path id="right_white" data-name="right white" class="cls-5" d="M442,183.2c0,32-29.5,57.9-65.8,57.9s-65.8-25.9-65.8-57.9,29.5-57.9,65.8-57.9,65.8,25.9,65.8,57.9"/>
      <path id="left_black-2" data-name="left black-2" class="cls-6" d="M237.3,213.3c-3.5,0-6.4-2.5-6.4-5.6s2.9-5.6,6.4-5.6,6.4,2.5,6.4,5.6-2.9,5.6-6.4,5.6ZM221.2,141.3c-8.3,0-16.1,1.9-22.9,5.1,7.2,2,12.4,7.9,12.4,14.8s-7.9,15.6-17.7,15.6-13.3-3.7-16.1-9.2c-2.2,4.8-3.4,10.1-3.4,15.5,0,23.2,21.3,42,47.6,42s47.6-18.8,47.6-42-21.3-42-47.6-42"/>
      <path id="right_black" data-name="right black" class="cls-6" d="M353.9,207.6c0-3.1,2.9-5.6,6.4-5.6s6.4,2.5,6.4,5.6-2.9,5.6-6.4,5.6-6.4-2.5-6.4-5.6ZM328.7,183.2c0,23.2,21.3,42,47.6,42s47.6-18.8,47.6-42-1.2-10.7-3.4-15.5c-2.8,5.4-8.9,9.2-16.1,9.2s-17.7-7-17.7-15.6,5.2-12.9,12.4-14.8c-6.7-3.3-14.6-5.1-22.9-5.1-26.3,0-47.6,18.8-47.6,42"/>
    </g>
  </g>
</svg>