<?xml version="1.0" encoding="UTF-8"?>
<svg id="lychee" xmlns="http://www.w3.org/2000/svg" version="1.1" xmlns:xlink="http://www.w3.org/1999/xlink" viewBox="0 0 600 600">
  <defs>
    <style>
      .cls-1 {
        fill: #e53e3c;
      }

      .cls-1, .cls-2, .cls-3, .cls-4, .cls-5, .cls-6, .cls-7, .cls-8, .cls-9, .cls-10 {
        stroke-width: 0px;
      }

      .cls-2 {
        fill: #d82e27;
      }

      .cls-3 {
        fill: #f7b0c2;
      }

      .cls-4 {
        fill: #ce2f2e;
      }

      .cls-5 {
        fill: #af1f24;
      }

      .cls-6 {
        fill: none;
      }

      .cls-7 {
        fill: #f8eada;
      }

      .cls-8 {
        fill: #a42c22;
      }

      .cls-9 {
        fill: #010101;
      }

      .cls-11 {
        clip-path: url(#clippath);
      }

      .cls-10 {
        fill: #fff;
      }

#lychee:hover #pinkk {
    fill: red;
    }

    #lychee:hover #Body_white {
    fill: pink;
    }

    #lychee:hover {
    filter: drop-shadow(20px 6px 10px rgb(98, 97, 97));
    animation: bounce 2s infinite;
      }
      
    @keyframes bounce {
    20%, 50%, 80%, to{
        transform: translateY(0);
    }

    40%{
        transform: translateY(-30px);
    }
    70%{
        transform: translateY(-15px);
    }
    90%{
        transform: translateY(-4px);
    }
    }
    </style>

 <script>
const lychee = document.querySelector("#lychee");

function logIdlychee() {
    console.log("User clicked on" + this.id);
}

lychee.addEventListener("click", logIdlychee);
</script>

    <clipPath id="clippath">
      <rect class="cls-6" x="67.9" y="283.8" width="451.7" height="256.3"/>
    </clipPath>
  </defs>
  <g id="Body_red" data-name="Body red">
    <g class="cls-11">
      <path class="cls-4" d="M504.4,405.5c-3.1,6.8-13.6,9.6-17.2,15.9-3.7,6.4-.8,16.9-5,22.8-4.2,6-15.1,6.8-20,12.3-4.9,5.5-4.1,16.4-9.5,21.4-5.4,5-16.2,3.7-21.9,8.1-5.8,4.5-7.2,15.3-13.5,19.2-6.2,3.8-16.6.4-23.1,3.7-6.5,3.2-10,13.6-16.9,16.2-6.8,2.6-16.3-2.8-23.3-.9-7.1,1.9-12.4,11.4-19.8,12.6-7.2,1.2-15.4-5.9-22.8-5.4-7.3.5-14.5,8.7-21.8,8.5-7.3-.3-14-8.8-21.3-9.7-7.2-.9-15.9,5.8-23.1,4.1-7.2-1.7-12.1-11.4-19-13.7-7.1-2.3-16.8,2.4-23.5-.5-6.8-3.1-9.6-13.6-15.9-17.2-6.4-3.7-16.9-.8-22.8-5-6-4.2-6.8-15.1-12.3-20-5.5-4.9-16.4-4.1-21.4-9.5-5-5.4-3.7-16.2-8.1-21.9-4.5-5.8-15.3-7.2-19.2-13.5-3.8-6.2-.4-16.5-3.7-23.1-3.2-6.5-13.6-10-16.2-16.9-2.6-6.8,2.8-16.3.9-23.3-1.9-7.1-11.4-12.4-12.6-19.7-1.2-7.2,5.9-15.4,5.4-22.8-.5-7.3-8.7-14.5-8.5-21.8.3-7.3,8.8-14,9.7-21.3,5.6,13.7,15.9,27.7,30.1,40.9,35.4,33.2,95.1,63,166,79.2,51.7,11.9,101.2,14.6,142.1,9.7,52.6-6.3,91.2-25.4,102.6-54.5.1,1.2,0,2.4-.3,3.6-1.7,7.2-11.4,12.1-13.7,19-2.3,7.2,2.6,16.9-.5,23.6Z"/>
    </g>
    <path class="cls-1" d="M416.2,413.9c0,.3-.1.4-.1.6s-.1.4-.1.6c-.3,0-.5.1-.8.1-4.7.9-11.3,2.2-17.2,6.4-5.9,4.4-8.7,10-10.9,14.2-.1.3-.3.4-.3.6h-.8c-4.9,0-11.5,0-18.2,3.1-6.7,3.1-10.6,8.2-13.6,11.9-.1.1-.3.4-.4.5-.3,0-.5-.1-.6-.1-4.9-.9-11.4-2.2-18.6-.4-7.2,1.8-12.2,6-15.8,9.1-.1.1-.4.3-.5.5-.3-.1-.4-.1-.6-.3-2.6-1-5.6-2.2-9.1-3.1-3.2-.8-6.2-1-9.1-.9-7.4.4-13.2,3.6-17.3,5.9-.3.1-.4.3-.6.4-.3-.1-.4-.3-.5-.4-3.5-2.3-8.3-5.4-14.5-6.8-.9-.3-1.8-.4-2.8-.5-7.4-1-13.7,1-18.3,2.4-.3.1-.5.1-.8.3-.3-.3-.4-.4-.6-.5-3.5-3.3-8.3-7.8-15.4-10.1l-2.7-.8c-6.2-1.4-11.8-.8-16-.3-.3,0-.4,0-.6.1-.1-.3-.3-.4-.4-.6-2.8-3.8-6.5-9.2-13.1-12.8-2.6-1.4-5.4-2.6-8.6-3.2-3.5-.8-6.8-1-9.5-1.3h-.6c-.1-.3-.3-.5-.3-.6-1.9-4.4-4.6-10.3-10.3-15-5.6-4.7-12.2-6.5-16.9-7.8-.3,0-.4-.1-.6-.1,0-.3-.1-.5-.1-.6-1-4.6-2.4-10.9-7.1-16.7-4.6-5.8-10.6-8.6-15.1-10.8-.3-.1-.4-.3-.6-.3v-.6c-.1-4.7-.3-11.2-3.6-17.6-3.5-6.4-8.7-10.4-12.7-13.3-.1-.1-.4-.3-.6-.4,0-.3.1-.5.1-.6.9-4.6,2.1-10.9,0-17.8-.1-.4-.3-.8-.4-1.2,35.4,33.2,95.1,63,166,79.2,51.1,11.5,100.6,14.4,141.5,9.4Z"/>
    <path class="cls-5" d="M344.8,501.1c-.8,3.3-2.1,6.2-3.8,8.6-1.8,2.4-4,4.5-6.5,6-10.1,6.4-25,5.9-35-1.2-11.7-7.8-18.6-27.1-6-36.5,13.5-9.9,34.3-4.4,45.4,8.2,2.2,2.6,4.1,5.3,5.4,8.3.6,2.1.9,4.4.6,6.5Z"/>
    <path class="cls-5" d="M409.6,486.1c-4.4,14.5-23.5,25.6-37.8,16-8-6-9.6-16.7-7.6-25.5,3.5-10.6,13.3-17.7,24.9-18.1,10.3.3,20,7.7,21.3,18.6.3,2.8.1,5.9-.8,9Z"/>
    <path class="cls-5" d="M410.8,441.6c-1.2,3.8-4,6.7-7.6,8.2-1.8.8-3.7,1.3-5.6,1.5-9,.5-21.9-3.3-22.8-12.7-.8-10.1,10.3-17.7,20-16.9,1.9.3,3.7.8,5.5,1.4,5.3,2.2,9.8,6.3,10.7,12.3.4,1.9.4,4.1-.1,6.2Z"/>
    <path class="cls-5" d="M369.1,448.4c1.2,5.4-.5,10.5-3.7,14.6-1.5,2.1-3.6,3.8-5.6,5.3-10.4,6.2-28.2,10-35.3-.6-7.3-11.7.9-27.4,13.1-32.8,2.3-.9,4.9-1.5,7.4-1.8,7.6-.8,15.5,1.4,20.5,7.8,1.8,2.2,2.9,4.7,3.6,7.6Z"/>
    <path class="cls-5" d="M457,428.8c4.1,3.6,5.9,8.7,5.9,13.8s-.5,5.3-1.3,7.7c-4.5,11.2-16.4,25-28.5,20.8-12.8-4.7-15.9-22.4-9.5-34,1.3-2.2,3-4.1,4.9-5.9,5.5-5.3,13.2-8.3,21-6.2,2.7.6,5.3,1.9,7.4,3.7Z"/>
    <path class="cls-5" d="M275.9,486.6c-1.2,8.8-7.3,17.7-16.8,18.1-2.2.4-4.4.5-6.4.4-2.1-.1-4.1-.5-6-1.3-3.7-1.4-6.8-4.1-8.1-8.3-4.9-14.6,5.4-37.1,22.2-33.2,3.6.3,7.1,1.9,9.7,4.5,2.7,2.6,4.5,6,4.5,10.1.8,3,1.2,6.3.9,9.7Z"/>
    <path class="cls-5" d="M227.8,461.6c5.3,7.2,6.8,17.9.1,24.6-1.3,1.7-2.8,3.3-4.5,4.6s-3.5,2.4-5.3,3.2c-3.7,1.5-7.8,1.7-11.7-.5-13.6-7.3-21.4-30.8-6.7-39.4,2.8-2.2,6.4-3.5,10.1-3.5s7.3,1.4,10.3,4.4c2.8,1.7,5.4,3.8,7.6,6.5Z"/>
    <path class="cls-2" d="M280.8,434.8c.3,6.3-3.7,14.6-10.3,16.3-2.6.6-5.3.9-7.8.9-13.3-.1-26.9-8.3-30.8-22.2-2.2-8.7,2.1-18.2,10.4-22.4,11.9-6.8,26.6-.6,33.6,10.4,1.4,2.2,2.4,4.6,3.1,7.2,1.2,3.1,1.8,6.4,1.8,9.9Z"/>
    <path class="cls-2" d="M214.5,404.7c3.8,5,5.3,14.1.8,19.2-1.8,1.9-3.8,3.7-6,5.1-11.2,7.4-26.9,8.3-37.8-.9-6.7-6-8.6-16.2-4.2-24.4,6-12.3,21.6-15.6,33.5-10.4,2.4,1,4.6,2.4,6.7,4.1,2.8,2.1,5.3,4.5,7.2,7.2Z"/>
    <path class="cls-2" d="M324.3,418c4.4,2.7,8.1,9.2,6.2,14.4-.8,2.1-1.8,4-3.1,5.6-6.3,8.8-18.1,14.2-29,10.4-6.9-2.6-11.2-9.7-10.3-17.3.9-11.2,11.8-18.2,22.4-17.7,2.1.1,4.2.5,6.3,1.2,2.6.8,5.1,1.9,7.4,3.5Z"/>
    <path class="cls-5" d="M158,399.3c-.8,3.3-2.1,6.2-3.8,8.6-1.8,2.4-4,4.5-6.5,6-10.1,6.4-25,5.9-35-1.2-11.7-7.8-18.6-27.1-6-36.5,13.5-9.9,34.3-4.4,45.4,8.2,2.2,2.6,4.1,5.3,5.4,8.3.6,2.1.8,4.2.6,6.5Z"/>
    <path class="cls-5" d="M177.9,460.6c-2.7,4.7-7.3,7.4-12.4,8.5-2.6.5-5.3.5-7.8.1-11.9-2.2-27.7-11.3-25.9-23.8,2.2-13.6,19-19.9,31.6-15.9,2.3.9,4.6,2.1,6.8,3.6,6.3,4.5,10.6,11.3,10.1,19.5-.3,2.8-1,5.5-2.3,8.1Z"/>
    <path class="cls-8" d="M522.6,354.6c-8.3,24-30.4,43.1-54,53.6-3.3,1.4-6.7,2.6-10.1,3.6-17.2,5.1-35.5,7.3-53.5,9.1-3.1.6-6.3,1.2-9.4,1.7-25,3.7-50.4,1-75.7-5.6-2.6-.4-5-.8-7.6-1.2-26.9.1-55,.3-78.1-12.7-2.8-1.7-5.6-3.5-8.5-5.5-3.8-2.1-5.1-5.5-8-7.2-29-9.7-57-19.4-81.2-38.5-2.4-1.8-4.9-3.5-7.3-5.3-2.4-1.8-4.7-3.5-7.1-5.3-3.1-2.3-5.9-4.7-8.7-7.2-36.4-16-61.3-57.4-34.6-95.8,1.2-2.2,2.6-4.2,4.1-6.3,21.8-25.3,57.1-38.2,89.3-37.3,3.1,0,6.3-.1,9.4-.3,21.8-.6,43-2.9,65.3-6.8,3.5.1,6.9.4,10.4.6,2.3.3,4.6.4,7.1.6,35.2,4.5,68.8,12.2,102.4,22.2,3.2,1.4,6.3,2.8,9.5,4.2,28.4,12.6,56.7,23.5,82.7,39.6,3.2,2.2,6.3,4.4,9.2,6.7,20.7,22.4,45.9,44,55.3,74.2.6,3.7.9,7.6.1,11.3,0,2.6-.4,5-1,7.3Z"/>
  </g>
  <path id="Body_white" data-name="Body white" class="cls-7" d="M446.6,262.2c-15.9,69-84.9,78.2-171,58.5-86.2-19.7-166-55.4-141-130.1,28.2-84.4,106-140.9,192-121.2,86.1,19.7,139.8,106.2,119.9,192.8ZM511.1,310.6c-20,86.9-111.2,97.6-225.7,71.3-114.4-26.3-220.7-72.3-188.6-166.3,36.1-106.2,138.2-176.4,252.6-150.1,114.4,26.3,186.7,136,161.6,245.2Z"/>
  <g id="higlights">
    <path class="cls-10" d="M198.6,110.4s48-44.6,105.5-38.8c57.5,5.8,5.3,52.8-22.8,57.7-28.1,5-92.5,51.5-109.2,33.6-16.5-17.8,26.6-52.4,26.6-52.4Z"/>
    <path class="cls-10" d="M153,171.4c.9.2,1.8.5,2.7,1,.9.4,1.7.9,2.5,1.5s1.5,1.3,2.1,2.1c.6.8,1.2,1.6,1.7,2.5.5.9.9,1.9,1.2,2.9.3,1,.5,2,.7,3.1.1,1.1.2,2.1.1,3.2,0,1.1-.2,2.2-.5,3.2-.2,1.1-.6,2.1-1,3.1-.4,1-.9,2-1.5,2.9-.6.9-1.2,1.7-2,2.5-.7.8-1.5,1.5-2.3,2.1-.8.6-1.7,1.1-2.6,1.5-.9.4-1.8.7-2.8.9-1,.2-1.9.3-2.9.3-1,0-1.9-.1-2.9-.3-.9-.2-1.8-.5-2.7-1-.9-.4-1.7-.9-2.5-1.5s-1.5-1.3-2.1-2.1c-.6-.8-1.2-1.6-1.7-2.5s-.9-1.9-1.2-2.9c-.3-1-.5-2-.7-3.1-.1-1.1-.2-2.1-.1-3.2,0-1.1.2-2.2.5-3.2.2-1.1.6-2.1,1-3.1.4-1,.9-2,1.5-2.9.6-.9,1.2-1.7,2-2.5.7-.8,1.5-1.5,2.3-2.1.8-.6,1.7-1.1,2.6-1.5.9-.4,1.8-.7,2.8-.9,1-.2,1.9-.3,2.9-.3,1,0,1.9.1,2.9.3Z"/>
  </g>
  <g id="eyes">
    <path class="cls-9" d="M220.4,197.7c.9.3,1.8.6,2.6,1,.9.4,1.7.8,2.5,1.2s1.6.9,2.4,1.4c.8.5,1.5,1.1,2.2,1.7.7.6,1.4,1.2,2.1,1.9s1.3,1.4,1.9,2.1c.6.7,1.1,1.5,1.7,2.2.5.8,1,1.6,1.4,2.4.4.8.8,1.7,1.2,2.5s.7,1.7.9,2.6c.3.9.5,1.8.7,2.7.2.9.3,1.8.4,2.8,0,.9.1,1.9.1,2.8,0,.9,0,1.9-.1,2.8,0,.9-.2,1.8-.4,2.8-.2.9-.4,1.8-.7,2.7-.3.9-.6,1.8-1,2.6-.4.9-.8,1.7-1.2,2.5s-.9,1.6-1.4,2.4c-.5.8-1.1,1.5-1.7,2.2-.6.7-1.2,1.4-1.9,2.1-.7.7-1.4,1.3-2.1,1.9-.7.6-1.5,1.1-2.2,1.7-.8.5-1.6,1-2.4,1.4-.8.4-1.7.8-2.5,1.2-.9.4-1.7.7-2.6.9-.9.3-1.8.5-2.7.7-.9.2-1.8.3-2.8.4-.9,0-1.9.1-2.8.1-.9,0-1.9,0-2.8-.1-.9,0-1.8-.2-2.8-.4s-1.8-.4-2.7-.7-1.8-.6-2.6-1c-.9-.4-1.7-.8-2.5-1.2s-1.6-.9-2.4-1.4c-.8-.5-1.5-1.1-2.2-1.7-.7-.6-1.4-1.2-2.1-1.9-.7-.7-1.3-1.4-1.9-2.1-.6-.7-1.1-1.5-1.7-2.2-.5-.8-1-1.6-1.4-2.4-.4-.8-.8-1.7-1.2-2.5s-.7-1.7-.9-2.6c-.3-.9-.5-1.8-.7-2.7-.2-.9-.3-1.8-.4-2.8s-.1-1.9-.1-2.8c0-.9,0-1.9.1-2.8s.2-1.8.4-2.8.4-1.8.7-2.7c.3-.9.6-1.8,1-2.6.4-.9.8-1.7,1.2-2.5s.9-1.6,1.4-2.4c.5-.8,1.1-1.5,1.7-2.2s1.2-1.4,1.9-2.1,1.4-1.3,2.1-1.9c.7-.6,1.5-1.1,2.2-1.7s1.6-1,2.4-1.4c.8-.4,1.7-.8,2.5-1.2s1.7-.7,2.6-.9c.9-.3,1.8-.5,2.7-.7.9-.2,1.8-.3,2.8-.4.9,0,1.9-.1,2.8-.1.9,0,1.9,0,2.8.1.9,0,1.8.2,2.8.4s1.8.4,2.7.7Z"/>
    <path class="cls-10" d="M231.8,220.1c-1.2,4.9-6,8-10.9,6.8-4.9-1.2-8-6-6.8-10.9,1.2-4.9,6-8,10.9-6.8,4.9,1.2,7.8,6,6.8,10.9Z"/>
    <path class="cls-9" d="M435.3,262.4c.2.9.4,1.8.6,2.7.2.9.3,1.8.3,2.8,0,.9,0,1.9,0,2.8,0,.9-.1,1.9-.2,2.8-.1.9-.3,1.8-.5,2.7-.2.9-.5,1.8-.8,2.7-.3.9-.6,1.8-1,2.6-.4.9-.8,1.7-1.3,2.5-.5.8-1,1.6-1.5,2.3s-1.1,1.5-1.7,2.2c-.6.7-1.3,1.4-1.9,2-.7.6-1.4,1.2-2.1,1.8-.7.6-1.5,1.1-2.3,1.6s-1.6.9-2.4,1.4c-.8.4-1.7.8-2.6,1.1-.9.3-1.8.6-2.7.9-.9.2-1.8.4-2.7.6-.9.2-1.8.3-2.8.3-.9,0-1.9,0-2.8,0-.9,0-1.9-.1-2.8-.2s-1.8-.3-2.8-.5-1.8-.5-2.7-.8-1.8-.6-2.6-1c-.8-.4-1.7-.8-2.5-1.3-.8-.5-1.6-1-2.3-1.5-.8-.5-1.5-1.1-2.2-1.7-.7-.6-1.4-1.3-2-1.9-.6-.7-1.2-1.4-1.8-2.1-.6-.7-1.1-1.5-1.6-2.3-.5-.8-.9-1.6-1.4-2.4-.4-.8-.8-1.7-1.1-2.6s-.6-1.8-.9-2.7c-.2-.9-.4-1.8-.6-2.7-.2-.9-.3-1.8-.3-2.8,0-.9,0-1.9,0-2.8s.1-1.9.2-2.8c.1-.9.3-1.8.5-2.8.2-.9.5-1.8.8-2.7.3-.9.6-1.7,1-2.6.4-.8.8-1.7,1.3-2.5.5-.8,1-1.6,1.5-2.3s1.1-1.5,1.7-2.2c.6-.7,1.3-1.4,1.9-2,.7-.6,1.4-1.2,2.1-1.8.7-.6,1.5-1.1,2.3-1.6s1.6-.9,2.4-1.4c.8-.4,1.7-.8,2.6-1.1.9-.3,1.8-.6,2.7-.9.9-.2,1.8-.4,2.7-.6.9-.2,1.8-.3,2.8-.3.9,0,1.9,0,2.8,0,.9,0,1.9.1,2.8.2.9.1,1.8.3,2.8.5.9.2,1.8.5,2.7.8s1.8.6,2.6,1c.9.4,1.7.8,2.5,1.3.8.5,1.6,1,2.3,1.5s1.5,1.1,2.2,1.7,1.4,1.3,2,1.9c.6.7,1.2,1.4,1.8,2.1.6.7,1.1,1.5,1.6,2.3s.9,1.6,1.4,2.4c.4.8.8,1.7,1.1,2.6s.6,1.8.9,2.7Z"/>
    <path class="cls-10" d="M427.7,265.1c-1.2,4.9-6,8-10.9,6.8-4.9-1.2-8-6-6.8-10.9,1.2-4.9,6-8,10.9-6.8,4.7,1.2,7.8,6,6.8,10.9Z"/>
  </g>
  <path id="mouth" class="cls-9" d="M304.2,289.7c-4.9-1.2-9.1-2.7-12.7-4.5-13.2-6.4-21-15.9-22.2-17.9-1.4-2.4-.3-4.4.8-5,1-.8,3.1-1.5,5.5,1.2.4.5.8,1,.9,1.7,2.4,2.8,8.7,9.2,18.1,13.7,14.6,7.2,30.1,7,45.9-.4,1.8-.9,3.8-.1,4.7,1.7s.1,3.8-1.7,4.7c-15.3,7-28.7,7.3-39.4,4.9Z"/>
  <path id="pinkk" class="cls-3" d="M152,237.3c.9.2,1.7.4,2.6.7.8.3,1.7.5,2.5.8s1.6.6,2.4,1,1.6.7,2.3,1.1c.7.4,1.5.8,2.2,1.3.7.4,1.4.9,2,1.4.6.5,1.3,1,1.8,1.5.6.5,1.1,1.1,1.7,1.6s1,1.1,1.4,1.7c.4.6.9,1.2,1.2,1.8.4.6.7,1.2,1,1.8s.5,1.2.7,1.8c.2.6.4,1.2.5,1.8.1.6.2,1.2.2,1.8,0,.6,0,1.2,0,1.8,0,.6-.1,1.2-.3,1.8-.1.6-.3,1.1-.5,1.7-.2.6-.5,1.1-.8,1.6s-.6,1-1,1.5c-.4.5-.8,1-1.3,1.4-.5.5-.9.9-1.5,1.3-.5.4-1.1.8-1.7,1.2-.6.4-1.2.7-1.9,1-.6.3-1.3.6-2,.9-.7.3-1.4.5-2.2.7-.8.2-1.5.4-2.3.6-.8.2-1.6.3-2.4.4-.8,0-1.7.2-2.5.2s-1.7,0-2.6,0c-.9,0-1.7,0-2.6-.2-.9,0-1.7-.2-2.6-.3-.9-.1-1.7-.3-2.6-.5-.9-.2-1.7-.4-2.6-.7-.8-.3-1.7-.5-2.5-.8s-1.6-.6-2.4-1-1.6-.7-2.3-1.1c-.7-.4-1.5-.8-2.2-1.3-.7-.4-1.4-.9-2-1.4s-1.3-1-1.8-1.5c-.6-.5-1.1-1.1-1.7-1.6s-1-1.1-1.4-1.7c-.4-.6-.9-1.2-1.2-1.8-.4-.6-.7-1.2-1-1.8s-.5-1.2-.7-1.8c-.2-.6-.4-1.2-.5-1.8-.1-.6-.2-1.2-.2-1.8,0-.6,0-1.2,0-1.8,0-.6.1-1.2.3-1.8s.3-1.1.5-1.7.5-1.1.8-1.6.6-1,1-1.5.8-1,1.2-1.4c.5-.5.9-.9,1.5-1.3.5-.4,1.1-.8,1.7-1.2.6-.4,1.2-.7,1.9-1,.7-.3,1.3-.6,2-.9.7-.3,1.4-.5,2.2-.7.8-.2,1.5-.4,2.3-.6.8-.2,1.6-.3,2.4-.4.8,0,1.7-.2,2.5-.2.9,0,1.7,0,2.6,0,.9,0,1.7,0,2.6.2.9,0,1.7.2,2.6.3.9.1,1.7.3,2.6.5ZM456.4,307.2c.9.2,1.7.4,2.6.7s1.7.5,2.5.8,1.6.6,2.4,1,1.6.7,2.3,1.1c.7.4,1.5.8,2.2,1.3.7.5,1.4.9,2,1.4s1.3,1,1.8,1.5c.6.5,1.1,1.1,1.6,1.6.5.5,1,1.1,1.4,1.7.4.6.9,1.2,1.2,1.8.4.6.7,1.2,1,1.8.3.6.5,1.2.7,1.8.2.6.4,1.2.5,1.8s.2,1.2.2,1.8c0,.6,0,1.2,0,1.8,0,.6-.1,1.2-.3,1.8-.1.6-.3,1.1-.5,1.7-.2.6-.5,1.1-.8,1.6-.3.5-.6,1-1,1.5-.4.5-.8,1-1.3,1.4-.5.5-.9.9-1.5,1.3-.5.4-1.1.8-1.7,1.2-.6.4-1.2.7-1.9,1-.7.3-1.3.6-2,.9-.7.3-1.4.5-2.2.7-.8.2-1.5.4-2.3.6-.8.2-1.6.3-2.4.4-.8.1-1.7.2-2.5.2-.8,0-1.7,0-2.6,0-.9,0-1.7,0-2.6-.2-.9,0-1.7-.2-2.6-.3-.9-.1-1.7-.3-2.6-.5-.9-.2-1.7-.4-2.6-.7-.8-.3-1.7-.5-2.5-.8-.8-.3-1.6-.6-2.4-1s-1.6-.7-2.3-1.1c-.7-.4-1.5-.8-2.2-1.3-.7-.5-1.4-.9-2-1.4s-1.3-1-1.8-1.5c-.6-.5-1.1-1.1-1.7-1.6-.5-.6-1-1.1-1.4-1.7-.4-.6-.9-1.2-1.2-1.8s-.7-1.2-1-1.8c-.3-.6-.5-1.2-.7-1.8-.2-.6-.4-1.2-.5-1.8-.1-.6-.2-1.2-.2-1.8,0-.6,0-1.2,0-1.8,0-.6.1-1.2.3-1.8.1-.6.3-1.2.5-1.7.2-.6.5-1.1.8-1.6.3-.5.6-1,1-1.5.4-.5.8-1,1.3-1.4.5-.5.9-.9,1.5-1.3.5-.4,1.1-.8,1.7-1.2.6-.4,1.2-.7,1.9-1,.7-.3,1.3-.6,2-.9.7-.3,1.4-.5,2.2-.7s1.5-.4,2.3-.6c.8-.2,1.6-.3,2.4-.4.8-.1,1.7-.2,2.5-.2.8,0,1.7,0,2.6,0,.9,0,1.7,0,2.6.2.9,0,1.7.2,2.6.3.9.1,1.7.3,2.6.5Z"/>
</svg>