<?xml version="1.0" encoding="UTF-8"?>
<svg id="peach" data-name="peach" xmlns="http://www.w3.org/2000/svg" version="1.1" xmlns:xlink="http://www.w3.org/1999/xlink" viewBox="0 0 600 600">
  <defs>
    <style>
      .cls-1 {
        fill: none;
      }

      .cls-1, .cls-2, .cls-3, .cls-4, .cls-5, .cls-6, .cls-7, .cls-8 {
        stroke-width: 0px;
      }

      .cls-2 {
        fill: #f49ec4;
      }

      .cls-3 {
        fill: #7fba42;
      }

      .cls-9 {
        clip-path: url(#clippath);
      }

      .cls-4 {
        fill: #885e35;
      }

      .cls-5 {
        fill: #2b1413;
      }

      .cls-6 {
        fill: #e07b6e;
      }

      .cls-7 {
        fill: #fff;
      }

      .cls-8 {
        fill: #f19785;
      }

      #peach:hover { 
    transform: rotate(30deg);
    transition: all 1s ease-in-out;
    filter: drop-shadow(20px 6px 10px rgb(98, 97, 97));
}

#peach:hover #cheek {
  fill: red;
}

#peach:hover #leaf {
    transform: rotate(-5deg);
    transition: all 1s ease-in-out;
}

#peach:hover #stem {
  fill: rgb(43, 4, 4);
}

#peach:hover .cls-8 {
  fill: rgb(237, 188, 235);
}
    </style>

<script>
const peach = document.querySelector("#peach");

function logIdpeach() {
    console.log("User clicked on" + this.id);
}

peach.addEventListener("click", logIdpeach);
</script>

    <clipPath id="clippath">
      <rect class="cls-1" x="74.8" y="126.9" width="450.3" height="392.1"/>
    </clipPath>
  </defs>
  <path id="leaf" class="cls-3" d="M398.8,79.2s-76.9-27-134.4,66c0,0,107.7,39.8,134.4-66"/>
  <path id="stem" class="cls-4" d="M262.6,224s-15.9-147.6,11.6-159.2l30.4,7.2s-31.9,43.4-29,151.9h-13"/>
  <g id="peach-main">
    <g class="cls-9">
      <path class="cls-8" d="M269.5,155.5s-79.9-47.3-159.8,36.6c0,0-84.9,88.2,10,234.4,0,0,70.7,92.6,186.4,92.6,0,0,113-17,175.4-88,51.3-58.4,81-233.9-50.1-295.2-29.3-13.7-122-14.7-161.9,19.7"/>
    </g>
  </g>
  <path id="peach-middle" class="cls-6" d="M265.9,168.6s-41.9,103-11,200.9c0,0-50.8-49.8-24-156.1,0,0,8.4-34.9,35-44.8"/>
  <path id="highlight" class="cls-7" d="M463,192.5c-5-10.4-17.6-31.4-36.6-28-19.1,3.4-21.6,13.7-17.5,19.8,4.1,6,17.9,14.8,28.2,22.5,10.3,7.7,16.2,26.1,16.2,26.1,0,0,2.7,8.3,11.6,5.4,8.9-2.9,11.5-18-1.9-45.8M469,265.5c2.2,4.1,7.3,5.7,11.4,3.5,4.1-2.2,5.7-7.2,3.5-11.4-2.2-4.1-7.3-5.7-11.4-3.5-4.1,2.2-5.7,7.2-3.5,11.4"/>
  <g id="Eyes">
    <path id="Eye_L" class="cls-5" d="M227.6,392c.7,11.6-8.1,21.6-19.7,22.4s-21.6-8.1-22.4-19.7c-.7-11.6,8.1-21.6,19.7-22.4s21.6,8.1,22.4,19.7"/>
    <path id="Eye-bright_2" class="cls-7" d="M219.6,385.7c.2,3.7-2.6,6.9-6.3,7.1-3.7.2-6.9-2.6-7.1-6.3-.2-3.7,2.6-6.9,6.3-7.1,3.7-.2,6.9,2.6,7.1,6.3"/>
    <path id="Eye_R" class="cls-5" d="M375.8,382.5c.7,11.6-8.1,21.6-19.7,22.4-11.6.7-21.6-8.1-22.4-19.7-.7-11.6,8.1-21.6,19.7-22.4,11.6-.7,21.6,8.1,22.4,19.7"/>
    <path id="Eye-bright_1" class="cls-7" d="M367.8,376.3c.2,3.7-2.6,6.9-6.3,7.1-3.7.2-6.9-2.6-7.1-6.3-.2-3.7,2.6-6.9,6.3-7.1,3.7-.2,6.9,2.6,7.1,6.3"/>
  </g>
  <path id="mouth" class="cls-5" d="M285.5,419.6c-3.6.2-7,0-9.9-.5-10.7-1.8-18.2-6.8-19.4-8-1.5-1.4-1-2.9-.5-3.6.5-.7,1.7-1.7,4-.3.4.2.7.6.9,1,2.3,1.5,8.1,4.7,15.7,6,12,2,22.9-1.3,32.5-10,1-.9,2.6-.8,3.5.2.9,1,.8,2.6-.2,3.5-9.2,8.3-18.7,11.2-26.7,11.7"/>
  <path id="cheek" class="cls-2" d="M187.6,426.9c.5,7.4-8.1,14-19.1,14.7-11,.7-20.4-4.7-20.8-12.1-.5-7.4,8.1-14,19.1-14.7,11-.7,20.4,4.7,20.8,12.1M417.8,412.2c.5,7.4-8.1,14-19.1,14.7-11,.7-20.4-4.7-20.8-12.1-.5-7.4,8.1-14,19.1-14.7,11-.7,20.4,4.7,20.8,12.1"/>
</svg>