<?xml version="1.0" encoding="UTF-8"?>
<svg id="Pearl" xmlns="http://www.w3.org/2000/svg" version="1.1" viewBox="0 0 600 600">
  <defs>
    <style>
      .cls-1 {
        fill: #010101;
      }

      .cls-1, .cls-2, .cls-3, .cls-4 {
        stroke-width: 0px;
      }

      .cls-2 {
        fill: #713a17;
      }

      .cls-3 {
        fill: #fff;
      }

      .cls-4 {
        fill: #d48728;
      }

      #Pearl:hover {
      filter: drop-shadow(20px 6px 10px rgb(98, 97, 97));
      transform: rotate(30deg);
      transition: all 1s ease-in-out;
      }

      #Pearl:hover #body {
      fill: #2e2222;
      }
  
      
      @keyframes bounce {
      20%, 50%, 80%, to{
        transform: translateY(0);
      }

      40%{
        transform: translateY(-30px);
      }
      70%{
        transform: translateY(-15px);
      }
      90%{
        transform: translateY(-4px);
      }
      }
    </style>
    <script>
const Pearl = document.querySelector("#Pearl");

function logIdPearl() {
    console.log("User clicked on" + this.id);
}

Pearl.addEventListener("click", logIdPearl);
</script>

  </defs>
  <path id="body" class="cls-2" d="M538.9,299.9c0,133.8-107,242.8-238.8,242.8S61.1,433.7,61.1,299.9,168,57.3,300.1,57.3s238.8,108.6,238.8,242.7h0Z"/>
  <path id="highlight" class="cls-4" d="M434.6,159.4c-6.5,21.5-41.3,29.9-77.5,18.5-36.3-11.3-60.6-38-54.1-59.5,6.5-21.6,41.1-29.7,77.5-18.6,36.3,11.4,60.5,38,54.1,59.6h0ZM498.9,213.8c-3,10.2-19.7,14.2-36.8,8.7-17.5-5.3-29.1-18-26.1-28.4,3.3-10.3,20-14.1,37.1-8.7,17.5,5.4,29.1,18,25.9,28.4h0ZM308.8,462.7c-110.3,0-200.1-85.5-211.4-194.5-.8,7.7-2.2,15.1-2.2,22.9,0,119.9,95.6,217,213.7,217s213.4-97.1,213.4-217-1.4-15.1-2.2-22.9c-11.4,109-101.1,194.5-211.2,194.5h0Z"/>
  <g id="eyes">
    <path class="cls-1" d="M220.9,199.5c1.1.3,2.2.8,3.2,1.3,1.1.5,2.1,1,3.1,1.7s2,1.2,2.9,2,1.8,1.5,2.7,2.2c.9.8,1.7,1.7,2.5,2.6s1.6,1.8,2.2,2.8c.7,1,1.4,2,2,3.1.7,1.1,1.2,2.2,1.7,3.3.5,1.1,1,2.2,1.4,3.5s.8,2.4,1.2,3.6c.3,1.2.6,2.5.8,3.7s.4,2.5.5,3.7.2,2.6.2,3.8,0,2.6-.2,3.8c0,1.2-.2,2.5-.5,3.7s-.5,2.5-.8,3.7c-.3,1.2-.7,2.4-1.2,3.6-.4,1.2-.9,2.3-1.5,3.4s-1.1,2.2-1.7,3.2c-.7,1.1-1.3,2.1-2,3.1-.7,1-1.5,1.9-2.3,2.8s-1.7,1.7-2.5,2.6c-.9.8-1.8,1.6-2.7,2.2-.9.7-1.9,1.3-2.9,1.9-1,.6-2,1.2-3.1,1.6-1.1.5-2.1.9-3.2,1.2-1.1.3-2.2.7-3.3.9-1.1.2-2.2.4-3.3.6-1.2,0-2.2.2-3.4.2s-2.2,0-3.4-.2c-1.2-.2-2.2-.3-3.3-.6s-2.2-.6-3.3-.9-2.2-.8-3.2-1.3c-1.1-.5-2.1-1-3.1-1.7s-2-1.2-2.9-2-1.8-1.5-2.7-2.2c-.8-.8-1.7-1.7-2.5-2.6-.8-.9-1.6-1.8-2.2-2.8-.7-1-1.4-2-2-3.1-.7-1.1-1.2-2.2-1.7-3.2-.5-1.1-1-2.2-1.4-3.5s-.8-2.4-1.2-3.6c-.3-1.2-.6-2.4-.8-3.7-.2-1.2-.4-2.5-.5-3.7s-.2-2.6-.2-3.8,0-2.6.2-3.8.2-2.5.5-3.7.5-2.5.8-3.7c.3-1.2.7-2.4,1.2-3.6.4-1.2.9-2.3,1.5-3.4s1.1-2.2,1.7-3.2c.7-1.1,1.3-2.1,2-3.1s1.5-1.9,2.3-2.8,1.7-1.7,2.5-2.6c.9-.8,1.7-1.6,2.7-2.2s1.9-1.3,2.9-1.9,2-1.2,3.1-1.6,2.1-.9,3.2-1.2c1.1-.3,2.2-.7,3.3-.9,1.1-.2,2.2-.4,3.3-.6,1.2,0,2.2-.2,3.4-.2s2.2,0,3.4.2c1.2.2,2.2.3,3.3.6s2.2.6,3.3.9h0Z"/>
    <path class="cls-3" d="M234.8,230.1c-1.4,6.7-7.3,10.9-13.2,9.3-5.9-1.6-9.6-8.2-8.2-14.9,1.4-6.7,7.3-10.9,13.2-9.3,5.9,1.6,9.5,8.2,8.2,14.9Z"/>
    <path class="cls-1" d="M482.1,287.9c.3,1.2.5,2.5.7,3.7.2,1.2.3,2.5.4,3.8,0,1.2,0,2.6,0,3.8,0,1.2-.2,2.6-.2,3.8-.2,1.2-.3,2.5-.6,3.7-.2,1.2-.6,2.5-.9,3.7-.3,1.2-.7,2.4-1.2,3.6s-1,2.3-1.6,3.4c-.6,1.1-1.2,2.2-1.8,3.2s-1.3,2-2.1,3-1.5,1.9-2.3,2.7c-.8.9-1.7,1.7-2.6,2.5-.9.7-1.8,1.5-2.8,2.2s-1.9,1.3-3,1.8c-1,.6-2.1,1.1-3.1,1.5-1.1.4-2.2.8-3.2,1.2s-2.2.6-3.3.8c-1.1.2-2.2.3-3.4.4s-2.2,0-3.4,0c-1.2,0-2.2-.2-3.4-.3s-2.2-.4-3.3-.7-2.2-.7-3.2-1.1-2.2-.9-3.2-1.4c-1-.5-2-1.1-3-1.7-1-.7-1.9-1.3-2.8-2.1s-1.8-1.5-2.7-2.4c-.8-.8-1.7-1.7-2.4-2.7s-1.5-1.9-2.2-2.9c-.7-1-1.3-2.1-1.9-3.2-.6-1.1-1.2-2.2-1.7-3.3s-1-2.3-1.3-3.5-.7-2.4-1.1-3.7-.5-2.5-.7-3.7c-.2-1.2-.3-2.5-.4-3.8,0-1.2,0-2.6,0-3.8s.2-2.6.2-3.8c.2-1.2.3-2.5.6-3.7.2-1.2.6-2.5.9-3.7s.7-2.4,1.2-3.6,1-2.3,1.6-3.4c.6-1.1,1.2-2.2,1.8-3.2s1.3-2,2.1-3c.7-.9,1.5-1.8,2.3-2.7.8-.8,1.7-1.7,2.6-2.5.9-.7,1.8-1.5,2.8-2.2s1.9-1.3,3-1.8c1-.6,2.1-1.1,3.1-1.5,1.1-.4,2.2-.8,3.2-1.2s2.2-.6,3.3-.8c1.1-.2,2.2-.3,3.4-.4,1.2,0,2.2,0,3.4,0,1.2,0,2.2.2,3.4.3,1.1.2,2.2.4,3.3.7s2.2.7,3.2,1.1,2.2.9,3.2,1.4c1,.5,2.1,1.1,3,1.7,1,.7,1.9,1.3,2.8,2.1s1.8,1.5,2.7,2.4,1.7,1.7,2.4,2.7,1.5,1.9,2.2,2.9c.7,1,1.3,2.1,1.9,3.2s1.2,2.2,1.7,3.3,1,2.3,1.3,3.5.7,2.4,1,3.7h0Z"/>
    <path class="cls-3" d="M472.9,291.6c-1.4,6.7-7.3,10.9-13.2,9.3s-9.6-8.2-8.2-14.9c1.4-6.7,7.3-10.9,13.2-9.3,5.7,1.6,9.5,8.2,8.2,14.9Z"/>
  </g>
  <path id="mouth" class="cls-1" d="M282.2,414.1c-15.4-4.2-28.8-9.7-40.2-16.2-41.8-23.2-66.5-57.6-70.2-65-4.5-8.8-.8-15.8,2.4-18.1,3.2-2.7,9.7-5.6,17.5,4.2,1.2,1.8,2.4,3.7,2.8,6.1,7.7,10.2,27.6,33.4,57.2,49.7,46.2,26,95.4,25.5,145.3-1.4,5.7-3.2,12.1-.5,15.1,6.1,2.8,6.5.4,14-5.2,17.2-48.3,25.5-90.9,26.4-124.6,17.6h0Z"/>
</svg>